<?xml version="1.0" encoding="UTF-8"?>
<!DOCTYPE svg PUBLIC "-//W3C//DTD SVG 1.1//EN" "http://www.w3.org/Graphics/SVG/1.1/DTD/svg11.dtd">
<!-- Creator: CorelDRAW 2020 (64-Bit) -->
<svg xmlns="http://www.w3.org/2000/svg" xml:space="preserve" width="11.6929in" height="8.26772in" version="1.1" style="shape-rendering:geometricPrecision; text-rendering:geometricPrecision; image-rendering:optimizeQuality; fill-rule:evenodd; clip-rule:evenodd"
viewBox="0 0 11692.91 8267.72"
 xmlns:xlink="http://www.w3.org/1999/xlink"
 xmlns:xodm="http://www.corel.com/coreldraw/odm/2003">
 <defs>
  <style type="text/css">
   <![CDATA[
    .fil3 {fill:black}
    .fil1 {fill:#F00E1D}
    .fil0 {fill:black;fill-rule:nonzero}
    .fil2 {fill:#F00E1D;fill-rule:nonzero}
   ]]>
  </style>
 </defs>
 <g id="Layer_x0020_1">
  <metadata id="CorelCorpID_0Corel-Layer"/>
  <g id="_2321205514864">
   <path class="fil0" d="M7004.28 4570.15l-17.76 170.82 -109.9 0 52.17 -501.78 189.8 0c65.13,0 113.07,13.29 144.07,39.78 31,26.48 43.78,65.35 38.48,116.39 -5.54,53.3 -28.59,95.69 -69.17,127.41 -40.56,31.6 -90.85,47.4 -150.75,47.4l-76.94 0zm25.54 -252.09l-17.94 172.53 29.32 0c55.12,0 92.28,-7.61 111.82,-22.84 19.43,-15.23 30.71,-38.53 34,-70.13 2.7,-25.91 -3.78,-45.69 -19.64,-59.21 -15.76,-13.53 -49.04,-20.35 -99.95,-20.35l-37.61 0z"/>
   <path class="fil0" d="M7620.1 4740.97l-101.61 0 5.22 -50.24c-34.05,26.82 -61.14,43.65 -81.27,50.35 -20.15,6.82 -41.19,10.23 -63.24,10.23 -33.64,0 -60.58,-10.91 -80.46,-32.84 -19.89,-21.83 -28.09,-50.01 -24.52,-84.34 4.53,-43.53 24.31,-76.49 59.39,-98.99 35.06,-22.39 105.62,-36.37 211.67,-41.94l1.07 -10.34c2.51,-24.1 -3.95,-41.71 -19.54,-52.51 -15.46,-10.91 -42.4,-16.37 -80.81,-16.37 -26.26,0 -64.8,10 -115.64,30.01l-3.75 0 8.41 -80.93c52.79,-12.5 100.14,-18.64 141.85,-18.64 65.01,0 110.98,10.46 137.66,31.48 26.81,20.91 37.88,54.32 33.13,100.01l-27.57 265.05zm-91.85 -93.88l10.12 -97.29c-67.63,5.57 -110.47,14.2 -128.5,25.8 -18.15,11.71 -28.24,27.85 -30.39,48.53 -2.27,21.94 2.04,37.28 12.85,45.92 10.92,8.64 28.89,12.96 54,12.96 26.37,0 53.75,-11.94 81.93,-35.92z"/>
   <path class="fil0" d="M8300.13 4738.58c-27.98,6.71 -57.53,10 -88.67,10 -45.91,0 -78.54,-9.77 -97.75,-29.44 -19.32,-19.67 -26.7,-51.48 -22.13,-95.35l20.88 -200.83 -50.57 0 7.03 -67.62 50.92 0 11.25 -108.2 101.94 0 -11.25 108.2 118.2 0 -7.03 67.62 -118.2 0 -16.52 158.89c-4.24,40.8 -1.78,67.4 7.26,79.9 9.17,12.39 26.13,18.65 50.69,18.65 15.8,0 31.88,-3.87 48.15,-11.71l3.06 0 -7.26 69.89z"/>
   <path class="fil0" d="M9097.77 4740.97l-102.97 0 19.98 -192.08c5.59,-53.76 3.16,-87.18 -7.32,-100.13 -10.58,-12.96 -29.11,-19.43 -55.83,-19.43 -22.16,0 -49.9,9.89 -83.32,29.67l-29.32 281.98 -102.19 0 40.11 -385.63 102.17 0 -5.61 53.98c34.78,-26.14 62.15,-43.53 82.24,-51.94 20.08,-8.41 40.52,-12.62 61.33,-12.62 81.26,0 117,47.62 107.09,142.87l-26.35 253.34z"/>
   <polygon class="fil1" points="8068.92,4355.34 8034.62,4422.96 8026.49,4422.96 7998.85,4422.96 8012.67,4433.17 8024.87,4442.18 7802.86,4879.86 7695,4879.86 7768.02,4741.65 7657.38,4355.34 7768.19,4355.34 7836.83,4630.72 7963.67,4355.34 "/>
   <path class="fil0" d="M8725.32 4564.13l-273.46 0c-3.54,77.29 36.35,115.93 119.54,115.93 43.52,0 88.92,-15.8 136.15,-47.28l3.63 0 -9.14 88.53c-54.23,20.01 -104.36,30.01 -150.28,30.01 -72.4,0 -125.74,-17.28 -160.15,-51.6 -34.41,-34.44 -48.26,-84.11 -41.58,-148.88 6.65,-64.33 29.83,-115.02 69.68,-151.96 39.73,-36.94 91.31,-55.46 154.5,-55.46 115.93,0 167.53,61.61 154.81,184.81l-3.7 35.91zm-96.32 -57.85c5.94,-66.38 -17.57,-99.57 -70.65,-99.57 -56.37,0 -89.92,33.19 -100.52,99.57l171.17 0z"/>
   <path class="fil0" d="M5656.6 4562.19l27.58 0 -8.25 -146.37 -38 0 -22.37 58.42c-6.08,16.72 -11.72,35.4 -16.07,51.25l-0.87 0c-3.69,-16.29 -8.69,-34.31 -14.11,-51.04l-20.85 -58.64 -38.66 0 -9.56 146.37 26.49 0 3.48 -59.94c1.09,-20.63 1.96,-45.39 2.82,-65.37l0.44 0c4.13,19.11 9.77,39.53 16.29,59.5l21.06 64.07 22.15 0 23.45 -64.5c7.38,-20.2 14.11,-40.61 19.76,-59.07l0.44 0c0,21.06 1.08,44.74 1.95,64.5l2.82 60.81zm146.37 -86.87l-61.89 0 0 -36.91 65.58 0 0 -22.59 -93.6 0 0 146.37 97.07 0 0 -22.58 -69.06 0 0 -41.7 61.89 0 0 -22.59zm170.04 86.87l27.58 0 -8.25 -146.37 -38 0 -22.37 58.42c-6.08,16.72 -11.72,35.4 -16.07,51.25l-0.87 0c-3.69,-16.29 -8.69,-34.31 -14.11,-51.04l-20.85 -58.64 -38.65 0 -9.56 146.37 26.49 0 3.47 -59.94c1.09,-20.63 1.96,-45.39 2.83,-65.37l0.43 0c4.13,19.11 9.77,39.53 16.29,59.5l21.06 64.07 22.15 0 23.45 -64.5c7.38,-20.2 14.11,-40.61 19.76,-59.07l0.43 0c0,21.06 1.09,44.74 1.95,64.5l2.82 60.81zm56.46 -0.43c7.38,0.87 19.54,1.95 35.83,1.95 28.67,0 46.69,-4.34 57.77,-13.24 9.12,-7.17 15.2,-17.37 15.2,-30.62 0,-21.06 -15.64,-32.79 -30.62,-36.49l0 -0.43c16.5,-5.87 25.19,-18.03 25.19,-31.28 0,-13.46 -6.95,-22.8 -16.72,-28.23 -10.2,-6.3 -22.36,-8.9 -44.08,-8.9 -16.51,0 -33.67,1.52 -42.57,3.26l0 143.98zm27.8 -125.52c3.26,-0.65 8.26,-1.3 17.59,-1.3 17.59,0 29.75,5.43 29.75,19.76 0,11.94 -10.64,20.63 -31.49,20.63l-15.85 0 0 -39.09zm0 59.07l15.42 0c20.19,0 36.05,6.52 36.05,23.45 0,18.46 -16.94,24.32 -34.96,24.32 -7.39,0 -12.59,-0.22 -16.51,-0.87l0 -46.91zm196.1 -19.98l-61.89 0 0 -36.91 65.58 0 0 -22.59 -93.6 0 0 146.37 97.07 0 0 -22.58 -69.06 0 0 -41.7 61.89 0 0 -22.59zm31.92 86.87l27.8 0 0 -59.94 16.07 0c16.5,0.44 23.89,6.74 28.67,25.85 4.56,18.46 8.25,29.75 10.64,34.09l28.44 0c-3.04,-5.86 -7.17,-23.02 -12.38,-41.48 -3.91,-13.25 -10.2,-23.45 -21.06,-27.58l0 -0.65c13.46,-4.35 27.8,-16.94 27.8,-36.48 0,-12.6 -5,-23.02 -13.03,-29.32 -10.2,-8.25 -25.19,-12.16 -48.21,-12.16 -17.37,0 -33.88,1.52 -44.74,3.26l0 144.42zm27.8 -125.31c3.04,-0.87 9.12,-1.52 19.55,-1.52 18.02,0 31.06,6.74 31.06,23.24 0,14.33 -11.94,23.46 -31.49,23.46l-19.11 0 0 -45.17z"/>
   <path class="fil0" d="M6535.92 4413.21c-45.17,0 -77.53,32.14 -77.53,77.31 0,42.57 29.97,74.28 75.57,74.28 44.95,0 78.18,-30.19 78.18,-77.1 0,-42.56 -29.54,-74.49 -76.22,-74.49zm-0.43 21.72c30.4,0 47.12,25.63 47.12,53.64 0,31.27 -18.02,54.51 -47.34,54.51 -29.1,0 -47.34,-24.11 -47.34,-53.21 0,-29.97 17.16,-54.94 47.56,-54.94zm100.98 127.26l28.02 0 0 -61.89 60.15 0 0 -22.59 -60.15 0 0 -39.31 64.93 0 0 -22.59 -92.94 0 0 146.37z"/>
   <path class="fil0" d="M2627.16 3453.91c21.23,-21.23 44.72,-37.48 70.46,-48.72 25.76,-11.25 53.76,-16.87 84.02,-16.87l634.1 0 0 127.15 -634.1 0c-11.25,0 -21.83,2.1 -31.73,6.3 -9.89,4.2 -18.53,9.98 -25.9,17.35 -7.37,7.36 -13.15,16 -17.34,25.91 -4.2,9.9 -6.3,20.47 -6.3,31.72l0 248.61c0,10.46 2.3,20.56 6.89,30.31 4.59,9.74 10.66,18.37 18.18,25.9 7.53,7.53 16.17,13.59 25.91,18.18 9.75,4.59 19.85,6.91 30.3,6.91l634.1 0 0 127.15 -634.1 0c-15.06,0 -29.67,-1.58 -43.84,-4.75 -14.19,-3.17 -27.81,-7.65 -40.88,-13.43 -13.07,-5.79 -25.47,-12.72 -37.2,-20.8 -11.72,-8.08 -22.57,-16.95 -32.56,-26.62 -20.76,-20.12 -36.88,-43.3 -48.37,-69.52 -11.48,-26.22 -17.22,-54.55 -17.22,-84.96l0 -225.31c0,-30.42 5.63,-58.47 16.87,-84.14 11.25,-25.67 27.49,-49.11 48.72,-70.35z"/>
   <path class="fil2" d="M5465.25 3453.91c21.23,-21.23 44.72,-37.48 70.46,-48.72 25.76,-11.25 53.76,-16.87 84.02,-16.87l634.1 0 0 127.15 -634.1 0c-11.25,0 -21.83,2.1 -31.74,6.3 -9.89,4.2 -18.53,9.98 -25.9,17.35 -7.37,7.36 -13.15,16 -17.34,25.91 -4.2,9.9 -6.3,20.47 -6.3,31.72l0 248.61c0,10.46 2.3,20.56 6.89,30.31 4.59,9.74 10.66,18.37 18.18,25.9 7.53,7.53 16.17,13.59 25.92,18.18 9.74,4.59 19.85,6.91 30.3,6.91l634.1 0 0 127.15 -634.1 0c-15.06,0 -29.67,-1.58 -43.85,-4.75 -14.18,-3.17 -27.81,-7.65 -40.88,-13.43 -13.07,-5.79 -25.47,-12.72 -37.2,-20.8 -11.72,-8.08 -22.57,-16.95 -32.56,-26.62 -20.76,-20.12 -36.88,-43.3 -48.37,-69.52 -11.48,-26.22 -17.22,-54.55 -17.22,-84.96l0 -225.31c0,-30.42 5.63,-58.47 16.87,-84.14 11.25,-25.67 27.49,-49.11 48.72,-70.35z"/>
   <path class="fil0" d="M6423.85 3388.31l698.74 0c11.41,0 21.78,1.81 31.13,5.47 9.34,3.64 17.38,8.83 24.11,15.57 6.75,6.73 11.93,14.77 15.57,24.11 3.65,9.35 5.47,19.73 5.47,31.13l0 589.19 -139.04 0 0 -276.41 -573.26 0 0 276.41 -139.03 0 0 -589.19c0,-11.41 1.83,-21.78 5.46,-31.13 3.64,-9.34 8.83,-17.38 15.57,-24.11 6.73,-6.73 14.77,-11.93 24.13,-15.57 9.34,-3.65 19.72,-5.47 31.13,-5.47zm62.74 261.92l573.26 0 0 -134.77 -573.26 0 0 134.77z"/>
   <path class="fil0" d="M8984.8 3577c0,-7.76 -1.35,-15.33 -4.05,-22.7 -2.69,-7.37 -6.65,-13.94 -11.88,-19.73 -5.22,-5.78 -11.76,-10.42 -19.61,-13.91 -7.85,-3.48 -16.92,-5.23 -27.21,-5.23l-528.12 0 0 411.19 528.12 0c10.78,0 20.12,-1.78 28.05,-5.35 7.92,-3.57 14.46,-8.24 19.61,-14.02 5.15,-5.78 8.95,-12.36 11.41,-19.73 2.46,-7.37 3.69,-14.86 3.69,-22.46l0 -288.07zm-653.62 476.78c-11.41,0 -21.78,-1.82 -31.14,-5.47 -9.34,-3.64 -17.39,-8.83 -24.12,-15.57 -6.74,-6.73 -11.93,-14.78 -15.57,-24.13 -3.64,-9.34 -5.46,-19.72 -5.46,-31.13l0 -512.91c0,-11.41 1.82,-21.79 5.46,-31.14 3.64,-9.35 8.83,-17.39 15.57,-24.13 6.74,-6.73 14.78,-11.92 24.12,-15.57 9.35,-3.64 19.73,-5.46 31.14,-5.46l593 0c22.35,0 42.79,2.65 61.33,7.96 18.54,5.3 35.3,12.64 50.27,21.98 14.97,9.35 28.08,20.4 39.33,33.16 11.25,12.76 20.6,26.57 28.05,41.47 7.44,14.9 13.07,30.58 16.87,47.07 3.8,16.48 5.7,33.11 5.7,49.91l0 264.3c0,16.63 -1.82,33.15 -5.47,49.56 -3.64,16.4 -9.15,31.97 -16.52,46.7 -7.37,14.74 -16.59,28.44 -27.69,41.13 -11.1,12.67 -24.13,23.6 -39.1,32.8 -14.97,9.19 -31.85,16.4 -50.63,21.63 -18.78,5.23 -39.49,7.85 -62.15,7.85l-593 0z"/>
   <path class="fil0" d="M4513.63 3388.29l593.49 0c22.34,0 42.74,2.69 61.2,8.07 18.46,5.39 35.1,12.76 49.91,22.11 14.81,9.35 27.72,20.44 38.74,33.28 11.02,12.83 20.16,26.74 27.45,41.71 7.29,14.97 12.76,30.67 16.41,47.06 3.64,16.4 5.39,32.92 5.22,49.56 0,16.96 -1.82,33.75 -5.46,50.39 -3.64,16.63 -9.11,32.44 -16.4,47.41 -7.29,14.97 -16.44,28.8 -27.45,41.48 -11.01,12.67 -23.89,23.65 -38.63,32.91 -14.73,9.27 -31.33,16.52 -49.79,21.75 -18.46,5.23 -38.86,7.84 -61.2,7.84l-530.74 0 0 261.92 -138.81 0 -0.15 -389.09 138.96 0 0 0 528.12 0c10.3,0 19.33,-2.13 27.09,-6.41 7.76,-4.28 14.26,-9.91 19.49,-16.87 5.23,-6.98 9.15,-14.94 11.76,-23.89 2.61,-8.94 3.96,-18.1 4.04,-27.45 0.08,-9.35 -1.15,-18.5 -3.69,-27.45 -2.53,-8.96 -6.37,-16.92 -11.53,-23.89 -5.15,-6.97 -11.65,-12.59 -19.48,-16.87 -7.84,-4.28 -17.07,-6.42 -27.69,-6.42l-506.17 0 -21.95 0 -139.02 0 -0.02 -50.86c0,-11.41 1.82,-21.79 5.46,-31.14 3.64,-9.35 8.83,-17.39 15.57,-24.13 6.74,-6.73 14.78,-11.92 24.12,-15.57 9.35,-3.64 19.73,-5.46 31.13,-5.46z"/>
   <polygon class="fil3" points="3509.47,3388.29 3648.51,3388.29 3648.51,3664.44 4111.1,3664.44 4111.1,3791.6 3648.51,3791.6 3648.51,4053.79 3509.47,4053.79 "/>
   <path class="fil0" d="M7368.75 3388.31l593.47 0c22.34,0 42.73,2.69 61.2,8.08 18.46,5.39 35.1,12.76 49.91,22.1 14.81,9.34 27.73,20.44 38.74,33.28 11.01,12.83 20.16,26.74 27.45,41.7 7.28,14.98 12.75,30.67 16.39,47.07 3.65,16.4 5.39,32.92 5.23,49.55 0,16.96 -1.83,33.76 -5.46,50.39 -3.64,16.64 -9.11,32.44 -16.4,47.42 -7.28,14.97 -16.43,28.79 -27.44,41.47 -11.01,12.67 -23.89,23.65 -38.62,32.93 -14.73,9.26 -31.33,16.5 -49.8,21.74 -18.46,5.23 -38.86,7.84 -61.2,7.84l-2.61 0 184.43 261.92 -171.12 0 -184.44 -261.92 -356.99 0 0 261.92 -138.8 0 -0.23 -589.19c0,-11.41 1.83,-21.78 5.46,-31.13 3.64,-9.34 8.83,-17.38 15.57,-24.11 6.74,-6.73 14.77,-11.93 24.13,-15.57 9.34,-3.65 19.72,-5.47 31.13,-5.47zm590.86 276.41c10.3,0 19.33,-2.14 27.09,-6.42 7.76,-4.28 14.26,-9.9 19.49,-16.87 5.22,-6.98 9.15,-14.94 11.76,-23.89 2.61,-8.95 3.97,-18.1 4.05,-27.45 0.08,-9.35 -1.15,-18.49 -3.69,-27.44 -2.53,-8.95 -6.37,-16.91 -11.52,-23.89 -5.15,-6.97 -11.64,-12.59 -19.49,-16.87 -7.84,-4.28 -17.07,-6.42 -27.68,-6.42l-528.12 0 0 149.27 528.12 0z"/>
   <path class="fil3" d="M4204.69 3450.45l0 -62.17 139.04 0 0 127.13 -139.01 0 0 -64.97 -0.03 0zm139.04 214.22l0 389.11 -139.04 0 0 -231.85 0.03 0 0 -157.26 139.01 0z"/>
  </g>
 </g>
</svg>
