<?xml version="1.0" encoding="utf-8"?>
<!-- Generator: Adobe Illustrator 26.0.1, SVG Export Plug-In . SVG Version: 6.00 Build 0)  -->
<svg version="1.1" id="Layer_1" xmlns:xodm="http://www.corel.com/coreldraw/odm/2003"
	 xmlns="http://www.w3.org/2000/svg" xmlns:xlink="http://www.w3.org/1999/xlink" x="0px" y="0px" viewBox="0 0 498 127"
	 style="enable-background:new 0 0 498 127;" xml:space="preserve">
<style type="text/css">
	.st0{fill-rule:evenodd;clip-rule:evenodd;fill:#F00E1D;}
	.st1{fill:#F00E1D;}
	.st2{fill-rule:evenodd;clip-rule:evenodd;}
</style>
<g id="Layer_x0020_1">
	<g id="_2321205514864">
		<path d="M331.3,99.1l-1.3,12.3h-7.9l3.8-36.1h13.7c4.7,0,8.1,1,10.4,2.9c2.2,1.9,3.2,4.7,2.8,8.4c-0.4,3.8-2.1,6.9-5,9.2
			c-2.9,2.3-6.5,3.4-10.9,3.4L331.3,99.1L331.3,99.1z M333.1,80.9l-1.3,12.4h2.1c4,0,6.6-0.5,8.1-1.6c1.4-1.1,2.2-2.8,2.4-5
			c0.2-1.9-0.3-3.3-1.4-4.3c-1.1-1-3.5-1.5-7.2-1.5H333.1L333.1,80.9z"/>
		<path d="M375.6,111.3h-7.3l0.4-3.6c-2.5,1.9-4.4,3.1-5.9,3.6c-1.5,0.5-3,0.7-4.6,0.7c-2.4,0-4.4-0.8-5.8-2.4
			c-1.4-1.6-2-3.6-1.8-6.1c0.3-3.1,1.8-5.5,4.3-7.1c2.5-1.6,7.6-2.6,15.2-3l0.1-0.7c0.2-1.7-0.3-3-1.4-3.8c-1.1-0.8-3.1-1.2-5.8-1.2
			c-1.9,0-4.7,0.7-8.3,2.2h-0.3l0.6-5.8c3.8-0.9,7.2-1.3,10.2-1.3c4.7,0,8,0.8,9.9,2.3c1.9,1.5,2.7,3.9,2.4,7.2L375.6,111.3
			L375.6,111.3z M369,104.6l0.7-7c-4.9,0.4-8,1-9.3,1.9c-1.3,0.8-2,2-2.2,3.5c-0.2,1.6,0.1,2.7,0.9,3.3c0.8,0.6,2.1,0.9,3.9,0.9
			C365,107.2,367,106.3,369,104.6L369,104.6z"/>
		<path d="M424.6,111.2c-2,0.5-4.1,0.7-6.4,0.7c-3.3,0-5.7-0.7-7-2.1c-1.4-1.4-1.9-3.7-1.6-6.9l1.5-14.5h-3.6l0.5-4.9h3.7l0.8-7.8
			h7.3l-0.8,7.8h8.5l-0.5,4.9h-8.5l-1.2,11.4c-0.3,2.9-0.1,4.9,0.5,5.8c0.7,0.9,1.9,1.3,3.6,1.3c1.1,0,2.3-0.3,3.5-0.8h0.2
			L424.6,111.2L424.6,111.2z"/>
		<path d="M482,111.3h-7.4l1.4-13.8c0.4-3.9,0.2-6.3-0.5-7.2c-0.8-0.9-2.1-1.4-4-1.4c-1.6,0-3.6,0.7-6,2.1l-2.1,20.3H456l2.9-27.8
			h7.4l-0.4,3.9c2.5-1.9,4.5-3.1,5.9-3.7c1.4-0.6,2.9-0.9,4.4-0.9c5.9,0,8.4,3.4,7.7,10.3L482,111.3L482,111.3z"/>
		<polygon class="st0" points="408,83.6 405.5,88.5 404.9,88.5 402.9,88.5 403.9,89.2 404.8,89.8 388.8,121.3 381,121.3 
			386.3,111.4 378.3,83.6 386.3,83.6 391.3,103.4 400.4,83.6 		"/>
		<path d="M455.2,98.6h-19.7c-0.3,5.6,2.6,8.3,8.6,8.3c3.1,0,6.4-1.1,9.8-3.4h0.3l-0.7,6.4c-3.9,1.4-7.5,2.2-10.8,2.2
			c-5.2,0-9.1-1.2-11.5-3.7c-2.5-2.5-3.5-6.1-3-10.7c0.5-4.6,2.1-8.3,5-10.9c2.9-2.7,6.6-4,11.1-4c8.3,0,12.1,4.4,11.1,13.3
			L455.2,98.6L455.2,98.6z M448.3,94.5c0.4-4.8-1.3-7.2-5.1-7.2c-4.1,0-6.5,2.4-7.2,7.2H448.3z"/>
		<path d="M234.3,98.5h2l-0.6-10.5h-2.7l-1.6,4.2c-0.4,1.2-0.8,2.5-1.2,3.7h-0.1c-0.3-1.2-0.6-2.5-1-3.7l-1.5-4.2h-2.8l-0.7,10.5
			h1.9l0.3-4.3c0.1-1.5,0.1-3.3,0.2-4.7h0c0.3,1.4,0.7,2.8,1.2,4.3l1.5,4.6h1.6l1.7-4.6c0.5-1.5,1-2.9,1.4-4.3h0
			c0,1.5,0.1,3.2,0.1,4.6L234.3,98.5L234.3,98.5z M244.8,92.2h-4.5v-2.7h4.7v-1.6h-6.7v10.5h7v-1.6h-5v-3h4.5L244.8,92.2L244.8,92.2
			z M257.1,98.5h2l-0.6-10.5h-2.7l-1.6,4.2c-0.4,1.2-0.8,2.5-1.2,3.7h-0.1c-0.3-1.2-0.6-2.5-1-3.7l-1.5-4.2h-2.8l-0.7,10.5h1.9
			l0.2-4.3c0.1-1.5,0.1-3.3,0.2-4.7h0c0.3,1.4,0.7,2.8,1.2,4.3l1.5,4.6h1.6l1.7-4.6c0.5-1.5,1-2.9,1.4-4.3h0c0,1.5,0.1,3.2,0.1,4.6
			L257.1,98.5L257.1,98.5z M261.1,98.4c0.5,0.1,1.4,0.1,2.6,0.1c2.1,0,3.4-0.3,4.2-1c0.7-0.5,1.1-1.3,1.1-2.2c0-1.5-1.1-2.4-2.2-2.6
			v0c1.2-0.4,1.8-1.3,1.8-2.3c0-1-0.5-1.6-1.2-2c-0.7-0.5-1.6-0.6-3.2-0.6c-1.2,0-2.4,0.1-3.1,0.2V98.4L261.1,98.4z M263.1,89.4
			c0.2,0,0.6-0.1,1.3-0.1c1.3,0,2.1,0.4,2.1,1.4c0,0.9-0.8,1.5-2.3,1.5h-1.1L263.1,89.4L263.1,89.4z M263.1,93.7h1.1
			c1.5,0,2.6,0.5,2.6,1.7c0,1.3-1.2,1.8-2.5,1.8c-0.5,0-0.9,0-1.2-0.1V93.7L263.1,93.7z M277.2,92.2h-4.5v-2.7h4.7v-1.6h-6.7v10.5h7
			v-1.6h-5v-3h4.5L277.2,92.2L277.2,92.2z M279.5,98.5h2v-4.3h1.2c1.2,0,1.7,0.5,2.1,1.9c0.3,1.3,0.6,2.1,0.8,2.5h2
			c-0.2-0.4-0.5-1.7-0.9-3c-0.3-1-0.7-1.7-1.5-2v0c1-0.3,2-1.2,2-2.6c0-0.9-0.4-1.7-0.9-2.1c-0.7-0.6-1.8-0.9-3.5-0.9
			c-1.3,0-2.4,0.1-3.2,0.2L279.5,98.5L279.5,98.5z M281.5,89.5c0.2-0.1,0.7-0.1,1.4-0.1c1.3,0,2.2,0.5,2.2,1.7c0,1-0.9,1.7-2.3,1.7
			h-1.4L281.5,89.5L281.5,89.5z"/>
		<path d="M297.6,87.8c-3.3,0-5.6,2.3-5.6,5.6c0,3.1,2.2,5.3,5.4,5.3c3.2,0,5.6-2.2,5.6-5.6C303.1,90.1,300.9,87.8,297.6,87.8
			L297.6,87.8z M297.6,89.3c2.2,0,3.4,1.8,3.4,3.9c0,2.3-1.3,3.9-3.4,3.9c-2.1,0-3.4-1.7-3.4-3.8C294.1,91.1,295.4,89.3,297.6,89.3
			L297.6,89.3z M304.8,98.5h2V94h4.3v-1.6h-4.3v-2.8h4.7v-1.6h-6.7L304.8,98.5L304.8,98.5z"/>
		<path d="M16.2,18.7c1.5-1.5,3.2-2.7,5.1-3.5c1.9-0.8,3.9-1.2,6-1.2h45.7v9.2H27.3c-0.8,0-1.6,0.2-2.3,0.5
			c-0.7,0.3-1.3,0.7-1.9,1.2c-0.5,0.5-0.9,1.2-1.2,1.9c-0.3,0.7-0.5,1.5-0.5,2.3v17.9c0,0.8,0.2,1.5,0.5,2.2
			c0.3,0.7,0.8,1.3,1.3,1.9c0.5,0.5,1.2,1,1.9,1.3c0.7,0.3,1.4,0.5,2.2,0.5h45.7v9.2H27.3c-1.1,0-2.1-0.1-3.2-0.3
			c-1-0.2-2-0.6-2.9-1c-0.9-0.4-1.8-0.9-2.7-1.5c-0.8-0.6-1.6-1.2-2.3-1.9c-1.5-1.4-2.7-3.1-3.5-5c-0.8-1.9-1.2-3.9-1.2-6.1V29.8
			c0-2.2,0.4-4.2,1.2-6.1C13.5,21.9,14.6,20.2,16.2,18.7L16.2,18.7z"/>
		<path class="st1" d="M220.5,18.7c1.5-1.5,3.2-2.7,5.1-3.5c1.9-0.8,3.9-1.2,6-1.2h45.7v9.2h-45.7c-0.8,0-1.6,0.2-2.3,0.5
			c-0.7,0.3-1.3,0.7-1.9,1.2c-0.5,0.5-0.9,1.2-1.2,1.9c-0.3,0.7-0.5,1.5-0.5,2.3v17.9c0,0.8,0.2,1.5,0.5,2.2
			c0.3,0.7,0.8,1.3,1.3,1.9c0.5,0.5,1.2,1,1.9,1.3c0.7,0.3,1.4,0.5,2.2,0.5h45.7v9.2h-45.7c-1.1,0-2.1-0.1-3.2-0.3
			c-1-0.2-2-0.6-2.9-1c-0.9-0.4-1.8-0.9-2.7-1.5c-0.8-0.6-1.6-1.2-2.3-1.9c-1.5-1.4-2.7-3.1-3.5-5c-0.8-1.9-1.2-3.9-1.2-6.1V29.8
			c0-2.2,0.4-4.2,1.2-6.1C217.8,21.9,219,20.2,220.5,18.7L220.5,18.7z"/>
		<path d="M289.5,14h50.3c0.8,0,1.6,0.1,2.2,0.4c0.7,0.3,1.3,0.6,1.7,1.1c0.5,0.5,0.9,1.1,1.1,1.7c0.3,0.7,0.4,1.4,0.4,2.2v42.4h-10
			V42H294v19.9h-10V19.5c0-0.8,0.1-1.6,0.4-2.2c0.3-0.7,0.6-1.3,1.1-1.7c0.5-0.5,1.1-0.9,1.7-1.1C287.9,14.1,288.7,14,289.5,14
			L289.5,14z M294,32.8h41.3v-9.7H294L294,32.8L294,32.8z"/>
		<path d="M473.9,27.5c0-0.6-0.1-1.1-0.3-1.6c-0.2-0.5-0.5-1-0.9-1.4c-0.4-0.4-0.8-0.8-1.4-1c-0.6-0.3-1.2-0.4-2-0.4h-38v29.6h38
			c0.8,0,1.4-0.1,2-0.4c0.6-0.3,1-0.6,1.4-1c0.4-0.4,0.6-0.9,0.8-1.4c0.2-0.5,0.3-1.1,0.3-1.6L473.9,27.5L473.9,27.5z M426.8,61.9
			c-0.8,0-1.6-0.1-2.2-0.4c-0.7-0.3-1.3-0.6-1.7-1.1c-0.5-0.5-0.9-1.1-1.1-1.7c-0.3-0.7-0.4-1.4-0.4-2.2V19.4c0-0.8,0.1-1.6,0.4-2.2
			c0.3-0.7,0.6-1.3,1.1-1.7c0.5-0.5,1.1-0.9,1.7-1.1c0.7-0.3,1.4-0.4,2.2-0.4h42.7c1.6,0,3.1,0.2,4.4,0.6c1.3,0.4,2.5,0.9,3.6,1.6
			c1.1,0.7,2,1.5,2.8,2.4s1.5,1.9,2,3c0.5,1.1,0.9,2.2,1.2,3.4c0.3,1.2,0.4,2.4,0.4,3.6v19c0,1.2-0.1,2.4-0.4,3.6
			c-0.3,1.2-0.7,2.3-1.2,3.4c-0.5,1.1-1.2,2-2,3c-0.8,0.9-1.7,1.7-2.8,2.4c-1.1,0.7-2.3,1.2-3.6,1.6c-1.4,0.4-2.8,0.6-4.5,0.6
			L426.8,61.9L426.8,61.9z"/>
		<path d="M152,14h42.7c1.6,0,3.1,0.2,4.4,0.6c1.3,0.4,2.5,0.9,3.6,1.6c1.1,0.7,2,1.5,2.8,2.4c0.8,0.9,1.5,1.9,2,3
			c0.5,1.1,0.9,2.2,1.2,3.4c0.3,1.2,0.4,2.4,0.4,3.6c0,1.2-0.1,2.4-0.4,3.6c-0.3,1.2-0.7,2.3-1.2,3.4c-0.5,1.1-1.2,2.1-2,3
			c-0.8,0.9-1.7,1.7-2.8,2.4c-1.1,0.7-2.3,1.2-3.6,1.6c-1.3,0.4-2.8,0.6-4.4,0.6h-38.2v18.9h-10l0-28h10l0,0h38c0.7,0,1.4-0.2,2-0.5
			c0.6-0.3,1-0.7,1.4-1.2c0.4-0.5,0.7-1.1,0.8-1.7c0.2-0.6,0.3-1.3,0.3-2c0-0.7-0.1-1.3-0.3-2c-0.2-0.6-0.5-1.2-0.8-1.7
			c-0.4-0.5-0.8-0.9-1.4-1.2c-0.6-0.3-1.2-0.5-2-0.5h-36.4h-1.6h-10l0-3.7c0-0.8,0.1-1.6,0.4-2.2c0.3-0.7,0.6-1.3,1.1-1.7
			c0.5-0.5,1.1-0.9,1.7-1.1C150.4,14.1,151.2,14,152,14L152,14z"/>
		<polygon class="st2" points="79.7,14 89.7,14 89.7,33.8 123,33.8 123,43 89.7,43 89.7,61.9 79.7,61.9 		"/>
		<path d="M357.5,14h42.7c1.6,0,3.1,0.2,4.4,0.6c1.3,0.4,2.5,0.9,3.6,1.6c1.1,0.7,2,1.5,2.8,2.4c0.8,0.9,1.5,1.9,2,3
			c0.5,1.1,0.9,2.2,1.2,3.4c0.3,1.2,0.4,2.4,0.4,3.6c0,1.2-0.1,2.4-0.4,3.6c-0.3,1.2-0.7,2.3-1.2,3.4c-0.5,1.1-1.2,2.1-2,3
			c-0.8,0.9-1.7,1.7-2.8,2.4c-1.1,0.7-2.3,1.2-3.6,1.6c-1.3,0.4-2.8,0.6-4.4,0.6h-0.2l13.3,18.9H401L387.8,43h-25.7v18.9h-10l0-42.4
			c0-0.8,0.1-1.6,0.4-2.2c0.3-0.7,0.6-1.3,1.1-1.7c0.5-0.5,1.1-0.9,1.7-1.1C356,14.1,356.7,14,357.5,14L357.5,14z M400.1,33.9
			c0.7,0,1.4-0.2,2-0.5c0.6-0.3,1-0.7,1.4-1.2c0.4-0.5,0.7-1.1,0.8-1.7c0.2-0.6,0.3-1.3,0.3-2c0-0.7-0.1-1.3-0.3-2
			c-0.2-0.6-0.5-1.2-0.8-1.7c-0.4-0.5-0.8-0.9-1.4-1.2c-0.6-0.3-1.2-0.5-2-0.5h-38v10.7L400.1,33.9L400.1,33.9z"/>
		<path class="st2" d="M129.7,18.4V14h10v9.2h-10L129.7,18.4L129.7,18.4L129.7,18.4z M139.7,33.9v28h-10V45.2h0V33.9L139.7,33.9
			L139.7,33.9z"/>
	</g>
</g>
</svg>
