<?xml version="1.0" encoding="utf-8"?>
<!-- Generator: Adobe Illustrator 26.0.1, SVG Export Plug-In . SVG Version: 6.00 Build 0)  -->
<svg version="1.1" id="katman_1" xmlns="http://www.w3.org/2000/svg" xmlns:xlink="http://www.w3.org/1999/xlink" x="0px" y="0px"
	 viewBox="0 0 487 234" style="enable-background:new 0 0 487 234;" xml:space="preserve">
<style type="text/css">
	.st0{fill-rule:evenodd;clip-rule:evenodd;fill:#1A1F71;}
</style>
<path class="st0" d="M243.4,92.8c-0.2,19.4,17.3,30.3,30.5,36.7c13.6,6.6,18.2,10.9,18.1,16.8c-0.1,9.1-10.8,13-20.9,13.2
	c-17.5,0.3-27.7-4.7-35.8-8.5l-6.3,29.6c8.1,3.7,23.2,7,38.8,7.2c36.7,0,60.6-18.1,60.8-46.2c0.1-35.6-49.3-37.6-48.9-53.5
	c0.1-4.8,4.7-10,14.8-11.3c5-0.7,18.8-1.2,34.4,6l6.1-28.6c-8.4-3.1-19.2-6-32.7-6C267.9,48.2,243.6,66.6,243.4,92.8 M394,50.7
	c-6.7,0-12.3,3.9-14.9,9.9l-52.4,125h36.6l7.3-20.1h44.8l4.2,20.1H452L423.8,50.7L394,50.7L394,50.7z M399.1,87.2l10.6,50.7h-29
	L399.1,87.2z M199,50.7l-28.9,134.9H205l28.9-134.9L199,50.7L199,50.7z M147.4,50.7L111,142.6L96.3,64.5
	c-1.7-8.7-8.5-13.8-16.1-13.8H20.8L20,54.6c12.2,2.6,26,6.9,34.4,11.5c5.1,2.8,6.6,5.2,8.3,11.9l27.8,107.7h36.9l56.6-135H147.4z"/>
</svg>
